<svg xmlns="http://www.w3.org/2000/svg"><symbol id="americanexpress" viewBox="0 0 32 32"><path fill="#2e77bc" d="M21.353 19.171c0-.427-.18-.661-.459-.829-.28-.16-.619-.18-1.08-.18h-2.057v3.76h.9v-1.369h.96c.32 0 .52.032.637.167.16.173.139.507.139.733v.467h.88v-.74c-.003-.333-.023-.501-.144-.688a.997.997 0 0 0-.44-.312l.027-.011c.24-.096.64-.396.64-.996zm-1.16.542l-.037-.003c-.12.071-.26.077-.44.077h-1.08v-.84h1.099c.16 0 .32 0 .44.067a.353.353 0 0 1 .2.34c0 .16-.06.287-.179.36zm6.87 1.403h-1.729v.8h1.739c.901 0 1.4-.371 1.4-1.179 0-.373-.088-.597-.249-.776-.204-.177-.523-.257-.973-.276l-.501-.02c-.139 0-.24 0-.34-.04a.282.282 0 0 1-.2-.28c0-.12.023-.221.12-.28a.664.664 0 0 1 .363-.08h1.64v-.803h-1.8c-.939 0-1.277.583-1.277 1.12 0 1.2 1.035 1.14 1.876 1.16.139 0 .24.02.3.08.061.04.109.141.109.24 0 .103-.047.2-.107.24-.08.071-.2.093-.369.093z"/><path fill="#2e77bc" d="M0 0v13.461l1.08-2.501h2.333l.3.619v-.619h2.724l.6 1.36.583-1.351h8.669c.393 0 .747.076 1.008.315v-.307h2.383v.307c.409-.227.915-.307 1.493-.307h3.475l.32.621v-.621h2.557l.339.62v-.621h2.477v5.264h-2.515l-.48-.8v.78h-3.137l-.341-.84h-.777l-.36.819h-1.617c-.64 0-1.12-.139-1.44-.32v.32h-3.853V15.02c0-.16-.04-.16-.14-.18h-.14v1.381H8.09v-.64l-.28.64H6.254l-.269-.64v.62H2.981l-.341-.832h-.772l-.341.832H.002V32h31.715v-9.477c-.36.18-.817.24-1.297.24h-2.297v-.34c-.28.22-.76.34-1.219.34h-7.288v-1.2c0-.16-.024-.16-.16-.16h-.1v1.363h-2.4v-1.421c-.397.181-.857.2-1.237.181h-.285v1.22h-2.907l-.72-.823-.76.8H6.326v-5.24h4.813l.691.803.739-.8h3.216c.373 0 .987.04 1.256.3v-.32h2.903c.269 0 .859.06 1.204.3v-.32h4.353v.32c.217-.219.677-.32 1.071-.32h2.52v.32c.259-.2.619-.32 1.12-.32h1.568V.001H.004z"/><path fill="#2e77bc" d="M28.208 19.94c.005.007.008.016.013.021.013.013.032.013.043.027l-.056-.047zm3.563-2.497h.087v.74h-.087z"/><path fill="#2e77bc" d="M31.82 20.04v-.007c-.04-.033-.061-.064-.1-.093-.2-.204-.52-.287-1.019-.3l-.48-.016c-.16 0-.259-.009-.36-.04a.282.282 0 0 1-.2-.28c0-.12.04-.213.12-.272.101-.06.2-.067.36-.067h1.631v-.784h-1.711c-.92 0-1.28.583-1.28 1.12 0 1.2 1.04 1.14 1.88 1.16.139 0 .24.02.299.08.061.04.101.141.101.24a.303.303 0 0 1-.12.24c-.06.075-.181.093-.36.093h-1.717v.807h1.716c.56 0 .979-.157 1.2-.48h.04c.12-.179.18-.4.18-.697 0-.32-.06-.52-.18-.701zm-7.024-1.096v-.777h-2.98v3.777h2.98v-.78h-2.093v-.76h2.044v-.779h-2.043v-.68zm-6.783-7.228h.913v3.751h-.912zm-.512 1.008l-.009.008c0-.419-.173-.667-.453-.832-.289-.167-.627-.18-1.08-.18h-2.052v3.76h.899v-1.379h.96c.32 0 .52.04.649.16.163.181.143.504.143.731v.472h.903v-.737c0-.333-.021-.5-.147-.688a1.05 1.05 0 0 0-.44-.316c.229-.093.629-.4.629-1zm-1.14.528h-.02c-.12.072-.26.075-.44.075H14.8v-.831h1.1c.16 0 .32.005.44.067.12.053.2.171.2.333s-.063.293-.179.355zm4.866-.755h.843v-.8h-.859c-.619 0-1.072.14-1.36.44-.381.4-.483.92-.483 1.48 0 .683.164 1.111.48 1.432.309.317.86.413 1.293.413h1.04l.34-.836h1.853l.349.836h1.813v-2.813l1.696 2.813h1.267l.003.003v-3.751h-.912v2.617l-1.573-2.613h-1.36v3.481l-1.511-3.541h-1.339l-1.257 2.96h-.4c-.236 0-.483-.04-.624-.179-.167-.2-.248-.48-.248-.883 0-.38.107-.68.259-.84.177-.18.363-.22.688-.22zm2.224-.144l.619 1.491v.003h-1.24l.621-1.493zM3.173 14.627l.339.837h1.821v-2.94l1.296 2.94h.779l1.297-2.936.02 2.936h.92v-3.747H8.157l-1.076 2.539-1.168-2.54H4.457v3.551L2.94 11.716H1.611L.014 15.463h.96l.347-.835h1.853zm-.917-2.274l.613 1.491-.004.003h-1.22l.609-1.493zm13.552 5.807h-2.856l-1.133 1.231-1.1-1.229H7.128v3.76h3.539l1.14-1.243 1.099 1.24h1.736v-1.253h1.117c.8 0 1.56-.219 1.56-1.26l-.008-.004c0-1.04-.797-1.24-1.504-1.24zm-5.581 2.977l-.019-.003H8.027v-.743h1.96v-.765h-1.96v-.68h2.24l.977 1.093-1.019 1.099zm3.522.44l-1.373-1.529 1.373-1.477v3.004zM15.82 19.9h-1.18v-.956h1.18c.32 0 .56.131.56.459 0 .324-.2.496-.56.496zm-2.531-7.403v-.781h-2.983v3.751h2.983v-.773H11.2v-.752h2.036v-.768H11.2v-.676z"/></symbol><symbol id="angle-down" viewBox="0 0 18 28"><path d="M16.797 11.5a.54.54 0 0 1-.156.359L9.36 19.14c-.094.094-.234.156-.359.156s-.266-.063-.359-.156l-7.281-7.281c-.094-.094-.156-.234-.156-.359s.063-.266.156-.359l.781-.781a.508.508 0 0 1 .359-.156.54.54 0 0 1 .359.156l6.141 6.141 6.141-6.141c.094-.094.234-.156.359-.156s.266.063.359.156l.781.781a.536.536 0 0 1 .156.359z"/></symbol><symbol id="cc-discover" viewBox="0 0 576 512"><path d="M83 212.1c0 7.9-3.2 15.5-8.9 20.7-4.9 4.4-11.6 6.4-21.9 6.4H48V185h4.2c10.3 0 16.7 1.7 21.9 6.6 5.7 5 8.9 12.6 8.9 20.5zM504.8 184h-4.9v24.9h4.7c10.3 0 15.8-4.4 15.8-12.8 0-7.9-5.5-12.1-15.6-12.1zM576 80v352c0 26.5-21.5 48-48 48H48c-26.5 0-48-21.5-48-48V80c0-26.5 21.5-48 48-48h480c26.5 0 48 21.5 48 48zM428 253h45.3v-13.8H444V217h28.3v-13.8H444V185h29.3v-14H428v82zm-86.2-82l35 84.2h8.6l35.5-84.2h-17.5l-22.2 55.2-21.9-55.2h-17.5zm-83 41.6c0 24.6 19.9 44.6 44.6 44.6 24.6 0 44.6-19.9 44.6-44.6 0-24.6-19.9-44.6-44.6-44.6-24.6 0-44.6 19.9-44.6 44.6zm-68-.5c0 32.5 33.6 52.5 63.3 38.2v-19c-19.3 19.3-46.8 5.8-46.8-19.2 0-23.7 26.7-39.1 46.8-19v-19c-30.2-15-63.3 6.8-63.3 38zm-33.9 28.3c-7.6 0-13.8-3.7-17.5-10.8l-10.3 9.9c17.8 26.1 56.6 18.2 56.6-11.3 0-13.1-5.4-19-23.6-25.6-9.6-3.4-12.3-5.9-12.3-10.3 0-8.7 14.5-14.1 24.9-2.5l8.4-10.8c-19.1-17.1-49.7-8.9-49.7 14.3 0 11.3 5.2 17.2 20.2 22.7 25.7 9.1 14.7 24.4 3.3 24.4zm-57.4-28.3c0-24.1-18-41.1-44.1-41.1H32v82h23.4c30.9 0 44.1-22.4 44.1-40.9zm23.4-41.1h-16v82h16v-82zM544 288c-33.3 20.8-226.4 124.4-416 160h401c8.2 0 15-6.8 15-15V288zm0-35l-25.9-34.5c12.1-2.5 18.7-10.6 18.7-23.2 0-28.5-30.3-24.4-52.9-24.4v82h16v-32.8h2.2l22.2 32.8H544z"/></symbol><symbol id="cc-mastercard" viewBox="0 0 36 28"><path d="M17.484 5.328A7.97 7.97 0 0 0 13.093 4C8.702 4 5.14 7.563 5.14 11.938a7.955 7.955 0 0 0 7.953 7.953 7.97 7.97 0 0 0 4.391-1.328c-4.188-3.406-4.156-9.828 0-13.234zm.516.375c-4.031 3.172-4.047 9.328 0 12.484 4.047-3.156 4.031-9.312 0-12.484zm.516-.375c4.141 3.406 4.203 9.844 0 13.234a8.01 8.01 0 0 0 4.391 1.328 7.955 7.955 0 0 0 7.953-7.953c0-4.375-3.563-7.938-7.953-7.938a7.97 7.97 0 0 0-4.391 1.328zm11.578 11.281h.109v-.047h-.266v.047h.109v.266h.047v-.266zm.453.266h.063v-.313h-.078l-.094.203-.094-.203h-.078v.313h.047v-.234l.094.203h.063l.078-.203v.234zm-.125 6.875v.031h-.078v-.047h.078v.016zm0 .141h.047l-.063-.078c.031 0 .031-.016.047-.016.016-.016.016-.031.016-.047s0-.031-.016-.047c-.016 0-.031-.016-.063-.016h-.094v.203h.047v-.078h.016zm-19.719-1.063c0-.375.234-.672.641-.672.375 0 .625.297.625.672 0 .391-.25.672-.625.672-.406 0-.641-.297-.641-.672zm7.391-.687c.297 0 .5.172.547.5h-1.094c.047-.297.234-.5.547-.5zm5.562.687c0-.375.234-.672.625-.672s.641.297.641.672c0 .391-.25.672-.641.672s-.625-.297-.625-.672zm4.25 0c0-.375.25-.672.641-.672.375 0 .641.297.641.672 0 .391-.266.672-.641.672-.391 0-.641-.297-.641-.672zm2.469 1.125c-.016 0-.031 0-.063-.016-.016 0-.031-.016-.047-.031s-.031-.031-.031-.047-.016-.047-.016-.063 0-.047.016-.063c0-.031.016-.047.031-.063s.031-.016.047-.031.047-.016.063-.016.047 0 .063.016.047.016.063.031.016.031.031.063c0 .016.016.031.016.063 0 .016-.016.031-.016.063-.016.016-.016.031-.031.047s-.031.031-.063.031c-.016.016-.031.016-.063.016zm-21.016-.062h.469v-1.328c0-.5-.328-.828-.844-.844-.266 0-.547.078-.734.375-.141-.234-.375-.375-.703-.375a.717.717 0 0 0-.609.313v-.25h-.469v2.109h.469v-1.172c0-.375.203-.562.516-.562s.469.203.469.562v1.172h.453v-1.172c0-.375.219-.562.516-.562.313 0 .469.203.469.562v1.172zm2.594 0h.453v-2.109h-.453v.25a.841.841 0 0 0-.672-.313c-.594 0-1.047.469-1.047 1.109s.453 1.109 1.047 1.109c.297 0 .516-.109.672-.313v.266zm2.781-.641c0-.375-.281-.562-.734-.625l-.219-.031c-.203-.031-.359-.078-.359-.219s.141-.234.391-.234c.281 0 .531.094.672.172l.187-.375c-.219-.141-.516-.219-.859-.219-.531 0-.875.266-.875.688 0 .344.25.547.734.609l.203.031c.266.047.375.109.375.219 0 .172-.172.266-.484.266s-.547-.109-.703-.219l-.203.359c.25.172.562.266.906.266.609 0 .969-.281.969-.688zm2.032.531l-.125-.391a.838.838 0 0 1-.406.109c-.234 0-.297-.141-.297-.344v-.953h.75v-.422h-.75v-.641h-.469v.641h-.438v.422h.438v.953c0 .484.187.781.734.781.187 0 .422-.063.562-.156zm1.343-2.062c-.609 0-1.047.453-1.047 1.109 0 .672.453 1.109 1.078 1.109.313 0 .609-.078.859-.297l-.219-.344a1.02 1.02 0 0 1-.609.234c-.297 0-.562-.141-.641-.516h1.578v-.187c0-.656-.406-1.109-1-1.109zm2.485 0a.593.593 0 0 0-.547.313v-.25h-.469v2.109h.469v-1.188c0-.344.141-.547.453-.547a.61.61 0 0 1 .281.063l.141-.438a.864.864 0 0 0-.328-.063zm.469 1.109c0 .641.438 1.109 1.125 1.109.313 0 .531-.063.75-.25l-.219-.375c-.172.125-.344.203-.547.187-.375 0-.641-.266-.641-.672s.266-.672.641-.672c.203 0 .375.063.547.187l.219-.375a1.117 1.117 0 0 0-.75-.25c-.688 0-1.125.469-1.125 1.109zm3.828 1.063h.469v-2.109h-.469v.25a.788.788 0 0 0-.656-.313c-.594 0-1.062.469-1.062 1.109s.469 1.109 1.062 1.109c.297 0 .516-.109.656-.313v.266zm2.078-2.172a.593.593 0 0 0-.547.313v-.25h-.453v2.109h.453v-1.188c0-.344.156-.547.453-.547a.61.61 0 0 1 .281.063l.141-.438a.814.814 0 0 0-.328-.063zm2.187 2.172h.453v-2.969h-.453v1.109c-.141-.187-.359-.313-.672-.313-.578 0-1.047.469-1.047 1.109s.469 1.109 1.047 1.109c.313 0 .531-.109.672-.313v.266zm1.219-.313c-.016 0-.047.016-.078.016a.228.228 0 0 0-.063.047c-.031.016-.047.047-.047.063-.016.031-.016.063-.016.094 0 .016 0 .047.016.078 0 .016.016.047.047.063.016.016.031.031.063.047s.063.016.078.016c.031 0 .063 0 .094-.016.016-.016.047-.031.063-.047s.031-.047.047-.063c.016-.031.016-.063.016-.078 0-.031 0-.063-.016-.094-.016-.016-.031-.047-.047-.063s-.047-.031-.063-.047c-.031 0-.063-.016-.094-.016zM36 4v20c0 1.094-.906 2-2 2H2c-1.094 0-2-.906-2-2V4c0-1.094.906-2 2-2h32c1.094 0 2 .906 2 2z"/></symbol><symbol id="cc-visa" viewBox="0 0 36 28"><path d="M30.859 15.469h-2.156s.219-.578 1.031-2.797c-.016.016.219-.578.344-.953l.187.859c.484 2.391.594 2.891.594 2.891zM8.297 14.453l-.906-4.609C7.266 9.203 6.782 9 6.219 9H2.031L2 9.203c2.875.734 5.234 2.297 6.297 5.25zM11.094 9l-2.531 6.844-.266-1.391C7.75 13 6.422 11.656 4.922 11.047l2.109 7.969h2.734L13.843 9h-2.75zm2.172 10.031h2.594L17.485 9h-2.594zm12-9.781a6.451 6.451 0 0 0-2.328-.422c-2.562 0-4.359 1.359-4.375 3.313-.016 1.437 1.281 2.234 2.266 2.719 1.016.484 1.344.812 1.344 1.25 0 .672-.812.969-1.547.969-1.047 0-1.609-.125-2.438-.516l-.344-.172-.359 2.25c.609.281 1.719.531 2.891.531 2.719.016 4.484-1.344 4.516-3.422 0-1.141-.703-2-2.188-2.719-.906-.453-1.453-.781-1.453-1.25 0-.422.469-.859 1.484-.859.844-.016 1.469.156 1.937.375l.234.125zm6.64-.25h-2c-.625 0-1.094.187-1.359.844l-3.844 9.188h2.719c.438-1.234.547-1.5.547-1.5h3.313s.078.344.313 1.5h2.406zM36 4v20c0 1.094-.906 2-2 2H2c-1.094 0-2-.906-2-2V4c0-1.094.906-2 2-2h32c1.094 0 2 .906 2 2z"/></symbol><symbol id="clock-o" viewBox="0 0 24 28"><path d="M14 8.5v7c0 .281-.219.5-.5.5h-5a.494.494 0 0 1-.5-.5v-1c0-.281.219-.5.5-.5H12V8.5c0-.281.219-.5.5-.5h1c.281 0 .5.219.5.5zm6.5 5.5c0-4.688-3.813-8.5-8.5-8.5S3.5 9.313 3.5 14s3.813 8.5 8.5 8.5 8.5-3.813 8.5-8.5zm3.5 0c0 6.625-5.375 12-12 12S0 20.625 0 14 5.375 2 12 2s12 5.375 12 12z"/></symbol><symbol id="enter" viewBox="0 0 512 512"><path d="M192 256H32v-64h160v-64l96 96-96 96zM512 0v416l-192 96v-96H128V288h32v96h160V96l128-64H160v128h-32V0z"/></symbol><symbol id="facebook" viewBox="0 0 32 32"><path d="M19 6h5V0h-5c-3.86 0-7 3.14-7 7v3H8v6h4v16h6V16h5l1-6h-6V7c0-.542.458-1 1-1z"/></symbol><symbol id="heart" viewBox="0 0 512 512"><path d="M377.594 32c-53.815 0-100.129 43.777-121.582 89.5C234.543 75.778 188.223 32 134.404 32 60.213 32 0 92.22 0 166.416c0 150.923 152.25 190.497 256.011 339.709C354.088 357.837 512 312.522 512 166.416 512 92.22 451.785 32 377.594 32z"/></symbol><symbol id="instagram" viewBox="0 0 32 32"><path d="M16 2.881c4.275 0 4.781.019 6.462.094 1.563.069 2.406.331 2.969.55a4.952 4.952 0 0 1 1.837 1.194 5.015 5.015 0 0 1 1.2 1.838c.219.563.481 1.412.55 2.969.075 1.688.094 2.194.094 6.463s-.019 4.781-.094 6.463c-.069 1.563-.331 2.406-.55 2.969a4.94 4.94 0 0 1-1.194 1.837 5.02 5.02 0 0 1-1.837 1.2c-.563.219-1.413.481-2.969.55-1.688.075-2.194.094-6.463.094s-4.781-.019-6.463-.094c-1.563-.069-2.406-.331-2.969-.55a4.952 4.952 0 0 1-1.838-1.194 5.02 5.02 0 0 1-1.2-1.837c-.219-.563-.481-1.413-.55-2.969-.075-1.688-.094-2.194-.094-6.463s.019-4.781.094-6.463c.069-1.563.331-2.406.55-2.969a4.964 4.964 0 0 1 1.194-1.838 5.015 5.015 0 0 1 1.838-1.2c.563-.219 1.412-.481 2.969-.55 1.681-.075 2.188-.094 6.463-.094zM16 0c-4.344 0-4.887.019-6.594.094-1.7.075-2.869.35-3.881.744-1.056.412-1.95.956-2.837 1.85a7.833 7.833 0 0 0-1.85 2.831C.444 6.538.169 7.7.094 9.4.019 11.113 0 11.656 0 16s.019 4.887.094 6.594c.075 1.7.35 2.869.744 3.881.413 1.056.956 1.95 1.85 2.837a7.82 7.82 0 0 0 2.831 1.844c1.019.394 2.181.669 3.881.744 1.706.075 2.25.094 6.594.094s4.888-.019 6.594-.094c1.7-.075 2.869-.35 3.881-.744 1.05-.406 1.944-.956 2.831-1.844s1.438-1.781 1.844-2.831c.394-1.019.669-2.181.744-3.881.075-1.706.094-2.25.094-6.594s-.019-4.887-.094-6.594c-.075-1.7-.35-2.869-.744-3.881a7.506 7.506 0 0 0-1.831-2.844A7.82 7.82 0 0 0 26.482.843C25.463.449 24.301.174 22.601.099c-1.712-.081-2.256-.1-6.6-.1z"/><path d="M16 7.781c-4.537 0-8.219 3.681-8.219 8.219s3.681 8.219 8.219 8.219 8.219-3.681 8.219-8.219A8.221 8.221 0 0 0 16 7.781zm0 13.55a5.331 5.331 0 1 1 0-10.663 5.331 5.331 0 0 1 0 10.663zM26.462 7.456a1.919 1.919 0 1 1-3.838 0 1.919 1.919 0 0 1 3.838 0z"/></symbol><symbol id="life-ring" viewBox="0 0 512 512"><path d="M256 504c136.967 0 248-111.033 248-248S392.967 8 256 8 8 119.033 8 256s111.033 248 248 248zm-103.398-76.72l53.411-53.411c31.806 13.506 68.128 13.522 99.974 0l53.411 53.411c-63.217 38.319-143.579 38.319-206.796 0zM336 256c0 44.112-35.888 80-80 80s-80-35.888-80-80 35.888-80 80-80 80 35.888 80 80zm91.28 103.398l-53.411-53.411c13.505-31.806 13.522-68.128 0-99.974l53.411-53.411c38.319 63.217 38.319 143.579 0 206.796zM359.397 84.72l-53.411 53.411c-31.806-13.505-68.128-13.522-99.973 0L152.602 84.72c63.217-38.319 143.579-38.319 206.795 0zM84.72 152.602l53.411 53.411c-13.506 31.806-13.522 68.128 0 99.974L84.72 359.398c-38.319-63.217-38.319-143.579 0-206.796z"/></symbol><symbol id="mail" viewBox="0 0 512 512"><path d="M256 0C114.615 0 0 114.615 0 256s114.615 256 256 256 256-114.615 256-256S397.385 0 256 0zM128 128h256c4.569 0 9.002.981 13.072 2.831L256 295.415 114.928 130.83A31.548 31.548 0 0 1 128 128zM96 352V160c0-.67.028-1.336.07-2l93.832 109.471-92.799 92.799A31.634 31.634 0 0 1 96 352zm288 32H128c-2.827 0-5.601-.381-8.27-1.104l91.059-91.059L256 344.586l45.212-52.747 91.058 91.06A31.729 31.729 0 0 1 384 384zm32-32c0 2.827-.381 5.6-1.103 8.27l-92.8-92.799L415.93 158c.042.664.07 1.33.07 2v192z"/></symbol><symbol id="menu" viewBox="0 0 512 512"><path d="M32 96h448v96H32zm0 128h448v96H32zm0 128h448v96H32z"/></symbol><symbol id="phone" viewBox="0 0 32 32"><path d="M22 20c-2 2-2 4-4 4s-4-2-6-4-4-4-4-6 2-2 4-4-4-8-6-8-6 6-6 6c0 4 4.109 12.109 8 16s12 8 16 8c0 0 6-4 6-6s-6-8-8-6z"/></symbol><symbol id="pinterest" viewBox="0 0 32 32"><path d="M16 2.138c-7.656 0-13.863 6.206-13.863 13.863 0 5.875 3.656 10.887 8.813 12.906-.119-1.094-.231-2.781.05-3.975.25-1.081 1.625-6.887 1.625-6.887s-.412-.831-.412-2.056c0-1.925 1.119-3.369 2.506-3.369 1.181 0 1.756.887 1.756 1.95 0 1.188-.756 2.969-1.15 4.613-.331 1.381.688 2.506 2.05 2.506 2.462 0 4.356-2.6 4.356-6.35 0-3.319-2.387-5.638-5.787-5.638-3.944 0-6.256 2.956-6.256 6.019 0 1.194.456 2.469 1.031 3.163a.408.408 0 0 1 .094.4c-.106.438-.338 1.381-.387 1.575-.063.256-.2.306-.463.188-1.731-.806-2.813-3.337-2.813-5.369 0-4.375 3.175-8.387 9.156-8.387 4.806 0 8.544 3.425 8.544 8.006 0 4.775-3.012 8.625-7.194 8.625-1.406 0-2.725-.731-3.175-1.594 0 0-.694 2.644-.863 3.294-.313 1.206-1.156 2.712-1.725 3.631 1.3.4 2.675.619 4.106.619 7.656 0 13.863-6.206 13.863-13.863 0-7.662-6.206-13.869-13.863-13.869z"/></symbol><symbol id="plane" viewBox="0 0 576 512"><path d="M480 192H365.71L260.61 8.06A16.014 16.014 0 0 0 246.71 0h-65.5c-10.63 0-18.3 10.17-15.38 20.39L214.86 192H112l-43.2-57.6c-3.02-4.03-7.77-6.4-12.8-6.4H16.01C5.6 128-2.04 137.78.49 147.88L32 256 .49 364.12C-2.04 374.22 5.6 384 16.01 384H56c5.04 0 9.78-2.37 12.8-6.4L112 320h102.86l-49.03 171.6c-2.92 10.22 4.75 20.4 15.38 20.4h65.5c5.74 0 11.04-3.08 13.89-8.06L365.71 320H480c35.35 0 96-28.65 96-64s-60.65-64-96-64z"/></symbol><symbol id="plus" viewBox="0 0 512 512"><path d="M496 192H320V16c0-8.836-7.164-16-16-16h-96c-8.836 0-16 7.164-16 16v176H16c-8.836 0-16 7.164-16 16v96c0 8.836 7.164 16 16 16h176v176c0 8.836 7.164 16 16 16h96c8.836 0 16-7.164 16-16V320h176c8.836 0 16-7.164 16-16v-96c0-8.836-7.164-16-16-16z"/></symbol><symbol id="rss" viewBox="0 0 32 32"><path d="M4.259 23.467A4.265 4.265 0 0 0 0 27.719a4.25 4.25 0 0 0 4.259 4.244 4.25 4.25 0 0 0 4.265-4.244 4.265 4.265 0 0 0-4.265-4.252zM.005 10.873v6.133c3.993 0 7.749 1.562 10.577 4.391A14.897 14.897 0 0 1 14.966 32h6.16c0-11.651-9.478-21.127-21.121-21.127zM.012 0v6.136C14.255 6.136 25.848 17.74 25.848 32H32C32 14.36 17.648 0 .012 0z"/></symbol><symbol id="twitter" viewBox="0 0 32 32"><path d="M32 7.075a12.941 12.941 0 0 1-3.769 1.031 6.601 6.601 0 0 0 2.887-3.631 13.21 13.21 0 0 1-4.169 1.594A6.565 6.565 0 0 0 22.155 4a6.563 6.563 0 0 0-6.563 6.563c0 .512.056 1.012.169 1.494A18.635 18.635 0 0 1 2.23 5.195a6.56 6.56 0 0 0-.887 3.3 6.557 6.557 0 0 0 2.919 5.463 6.565 6.565 0 0 1-2.975-.819v.081a6.565 6.565 0 0 0 5.269 6.437 6.574 6.574 0 0 1-2.968.112 6.588 6.588 0 0 0 6.131 4.563 13.17 13.17 0 0 1-9.725 2.719 18.568 18.568 0 0 0 10.069 2.95c12.075 0 18.681-10.006 18.681-18.681 0-.287-.006-.569-.019-.85A13.216 13.216 0 0 0 32 7.076z"/></symbol><symbol id="user" viewBox="0 0 512 512"><path d="M288 353.306v-26.39c35.249-19.864 64-69.386 64-118.916 0-79.529 0-144-96-144s-96 64.471-96 144c0 49.53 28.751 99.052 64 118.916v26.39C115.449 362.18 32 415.516 32 480h448c0-64.484-83.449-117.82-192-126.694z"/></symbol></svg>